# xmcd
#
# Track frame offsets:
#	150
#	17609
#	38361
#	54251
#	68036
#	81116
#	98216
#	114533
#	130785
#	150272
#	162488
#	179075
#	201444
#	220539
#
# Disc length: 3157 seconds
#
# Revision: 1
# Processed by: cddbd v1.5.1PL0 Copyright (c) Steve Scherf et al.
# Submitted via: audiograbber 1.83.01
#
DISCID=af0c530e
DTITLE=Lee Ann Womack - Greatest Hits
DYEAR=2004
DGENRE=Country
TTITLE0=Never Again, Again
TTITLE1=You've Got To Talk To Me
TTITLE2=Fool, The
TTITLE3=Little Past Little Rock, A
TTITLE4=Now You Don't, (Now You See Me)
TTITLE5=I'll Think Of A Reason Later
TTITLE6=I Hope You Dance
TTITLE7=Ashes By Now
TTITLE8=Why They Call It Falling
TTITLE9=Something Worth Leaving Behind
TTITLE10=Mendocino County Line - (with Willie Nelson)
TTITLE11=Does My Ring Burn Your Finger
TTITLE12=Wrong Girl, The
TTITLE13=Time For Me To Go
EXTD=
EXTT0=
EXTT1=
EXTT2=
EXTT3=
EXTT4=
EXTT5=
EXTT6=
EXTT7=
EXTT8=
EXTT9=
EXTT10=
EXTT11=
EXTT12=
EXTT13=
PLAYORDER=
